<svg width="22" height="22" viewBox="0 0 22 22" fill="none" xmlns="http://www.w3.org/2000/svg">
<path d="M21.0676 1.73594C22.0086 2.67567 22.0086 4.19934 21.0676 5.13907L19.7785 6.43243L15.5676 2.22235L16.8609 0.930707C17.802 -0.00916973 19.323 -0.00916973 20.2641 0.930707L21.0676 1.73594ZM7.40781 10.3856L14.5965 3.1943L18.8074 7.40352L11.6145 14.5922C11.3523 14.8586 11.0301 15.0563 10.6734 15.1766L6.85781 16.4484C6.44961 16.5688 6.08008 16.4742 5.80078 16.1606C5.52578 15.9199 5.43125 15.5117 5.55156 15.1422L6.82344 11.3266C6.94375 10.9699 7.14141 10.6477 7.40781 10.3856ZM8.25 2.71133C9.01055 2.71133 9.625 3.36575 9.625 4.08633C9.625 4.88555 9.01055 5.46133 8.25 5.46133H4.125C3.36574 5.46133 2.75 6.11446 2.75 6.83633V17.875C2.75 18.6356 3.36574 19.25 4.125 19.25H15.125C15.8855 19.25 16.5 18.6356 16.5 17.875V13.7113C16.5 12.9895 17.1145 12.3363 17.875 12.3363C18.6355 12.3363 19.25 12.9895 19.25 13.7113V17.875C19.25 20.1523 17.4023 22 15.125 22H4.125C1.8468 22 0 20.1523 0 17.875V6.83633C0 4.55899 1.8468 2.71133 4.125 2.71133H8.25Z" fill="#706BE5"/>
</svg>
