<svg width="36" height="36" viewBox="0 0 36 36" fill="none" xmlns="http://www.w3.org/2000/svg">
<g clip-path="url(#clip0_8_9)">
<path d="M35.9719 2.59196L31.4719 31.7787C31.3665 32.4631 30.9534 33.0598 30.349 33.3994C30.0084 33.5906 29.6269 33.6875 29.2465 33.6875C28.9521 33.6875 28.6616 33.6301 28.3824 33.5136L19.7621 29.9207L16.186 35.2848C15.9118 35.7542 15.4547 36.0002 14.9626 36.0002C14.154 36.0002 13.5001 35.3463 13.5001 34.5377V27.7751C13.5001 27.2748 13.6668 26.7886 13.9741 26.3941L29.2501 6.75024L8.59928 25.3338L1.38451 22.3245C0.593356 21.994 0.0571875 21.2487 0.00445317 20.3276C-0.0482812 19.4065 0.388992 18.6598 1.13367 18.2344L32.6337 0.297664C33.3853 -0.131875 34.3127 -0.092359 35.0243 0.396524C35.7359 0.885407 36.1055 1.73837 35.9719 2.59196Z" fill="white"/>
</g>
<defs>
<clipPath id="clip0_8_9">
<rect width="36" height="36" fill="white"/>
</clipPath>
</defs>
</svg>
