<svg width="20" height="23" viewBox="0 0 20 23" fill="none" xmlns="http://www.w3.org/2000/svg">
<path d="M6.03571 0.794668C6.27679 0.307625 6.77232 0 7.3125 0H12.6875C13.2277 0 13.7232 0.307625 13.9643 0.794668L14.2857 1.4375H18.5714C19.3616 1.4375 20 2.08123 20 2.875C20 3.66877 19.3616 4.3125 18.5714 4.3125H1.42857C0.639732 4.3125 0 3.66877 0 2.875C0 2.08123 0.639732 1.4375 1.42857 1.4375H5.71429L6.03571 0.794668ZM17.625 20.9381C17.5536 22.115 16.6205 23 15.4866 23H4.51339C3.3817 23 2.44509 22.115 2.37455 20.9381L1.38839 5.75H18.5714L17.625 20.9381Z" fill="#B11010"/>
</svg>
